<?xml version="1.0" encoding="UTF-8"?>
<!DOCTYPE svg PUBLIC "-//W3C//DTD SVG 1.1//EN" "http://www.w3.org/Graphics/SVG/1.1/DTD/svg11.dtd">
<svg version="1.1" xmlns="http://www.w3.org/2000/svg" xmlns:xlink="http://www.w3.org/1999/xlink" x="0" y="0" width="512" height="512" viewBox="0, 0, 512, 512">
  <g id="Layer_1">
    <path d="M202.948,407.304 C197.808,409.508 188.995,410.243 176.512,410.243 C162.561,410.243 154.116,409.875 151.547,409.141 C148.609,408.406 145.672,405.47 142.734,399.961 C125.845,368.754 113.729,336.813 106.387,303.768 C105.653,301.566 104.918,297.16 103.816,290.919 C103.082,284.677 102.347,280.271 101.98,278.068 C101.98,276.599 102.347,274.764 102.715,273.295 C89.866,249.43 82.889,222.261 82.889,193.256 C82.889,190.32 82.889,187.014 83.257,184.078 C41.401,213.449 13.865,262.281 13.865,317.353 C13.865,407.304 86.56,480 176.512,480 C218.368,480 256.184,464.213 285.189,438.513 C257.653,431.904 233.053,419.053 212.126,401.43 C209.555,404.001 206.619,405.835 202.948,407.304 z" fill="#71B7B0"/>
    <path d="M404.146,116.155 C404.146,116.523 403.778,116.523 403.778,116.888 C415.527,140.019 422.136,166.087 422.136,193.623 C422.136,256.406 387.991,311.111 337.325,340.483 C331.817,379.401 312.725,413.546 284.822,438.513 C297.672,441.45 310.89,443.286 324.841,443.286 C420.667,443.286 498.135,365.818 498.135,269.99 C497.77,203.169 459.585,144.793 404.146,116.155 z" fill="#DE4127"/>
    <path d="M194.503,156.175 C226.079,119.826 272.705,97.063 324.474,97.063 C330.348,97.063 335.855,97.43 341.73,97.797 C350.175,86.416 358.252,76.503 365.595,67.323 C335.488,40.154 295.836,24 252.146,24 C161.459,24 87.662,94.859 82.889,184.445 C109.324,166.087 141.267,155.073 176.145,155.073 C182.386,155.073 188.261,155.44 194.503,156.175 z" fill="#FCBA2E"/>
    <path d="M102.715,273.663 C103.816,268.89 107.122,264.483 112.262,260.077 C128.049,248.328 142,241.719 154.116,240.619 C159.623,208.676 173.943,179.671 194.503,156.173 C188.628,155.44 182.386,155.073 176.145,155.073 C141.267,155.073 109.324,166.087 82.889,184.444 C82.889,187.382 82.522,190.685 82.522,193.623 C82.522,222.629 89.866,249.797 102.715,273.663 z" fill="#888835"/>
    <path d="M194.503,156.175 C225.344,159.478 253.247,171.595 276.378,189.585 C294.001,163.517 310.89,139.651 327.045,117.99 C332.185,111.013 337.325,104.406 342.097,98.165 C336.59,97.43 330.715,97.43 324.841,97.43 C272.705,97.063 226.079,119.826 194.503,156.175 z" fill="#BA2025"/>
    <path d="M336.957,340.483 C387.624,311.111 421.769,256.406 421.769,193.623 C421.769,166.087 415.16,140.019 403.411,116.888 C372.204,156.907 342.832,196.192 316.03,235.112 C330.348,259.343 338.426,287.613 338.426,317.72 C338.794,325.431 338.059,333.14 336.957,340.483 z" fill="#DF3F26"/>
    <path d="M336.957,340.483 C387.624,311.111 421.769,256.406 421.769,193.623 C421.769,166.087 415.16,140.019 403.411,116.888 C372.204,156.907 342.832,196.192 316.03,235.112 C330.348,259.343 338.426,287.613 338.426,317.72 C338.794,325.431 338.059,333.14 336.957,340.483 z" fill="#FDBB30"/>
    <path d="M338.794,317.72 C338.794,287.613 330.716,259.343 316.398,235.112 C310.523,243.556 305.016,252.001 299.509,260.077 L266.096,311.478 L241.498,351.131 L234.889,362.512 L232.686,366.55 L224.242,381.605 L215.062,397.025 C214.33,398.861 213.228,400.328 211.759,401.43 C232.318,419.053 257.285,432.271 284.822,438.513 C312.725,413.546 331.817,379.401 337.325,340.483 C338.059,333.14 338.794,325.431 338.794,317.72 z" fill="#722B14"/>
    <path d="M154.116,240.619 C155.585,240.619 156.687,240.252 158.156,240.252 C162.561,240.252 165.497,241.352 167.334,243.188 L171.739,251.634 L188.261,291.653 C191.566,300.831 195.604,305.237 199.643,305.237 C202.213,305.237 206.986,299.729 213.962,288.348 C225.711,268.523 242.967,240.619 266.464,204.638 C270.136,199.498 273.44,194.358 276.745,189.218 C253.615,171.227 225.711,159.111 194.87,155.808 C173.943,179.304 159.623,208.676 154.116,240.619 z" fill="#722B14"/>
  </g>
</svg>
