<?xml version="1.0" encoding="UTF-8"?>
<!DOCTYPE svg PUBLIC "-//W3C//DTD SVG 1.1//EN" "http://www.w3.org/Graphics/SVG/1.1/DTD/svg11.dtd">
<svg version="1.1" xmlns="http://www.w3.org/2000/svg" xmlns:xlink="http://www.w3.org/1999/xlink" x="0" y="0" width="400" height="400" viewBox="0, 0, 400, 400">
    <text transform="matrix(1, 0, 0, 1, 205.43, 323.8)">
      <tspan x="-132.43" y="20.5" font-family="Futura-Bold" font-size="54" fill="#71B7B0">Appraise</tspan>
    </text>
    <path d="M173.907,245.256 C171.164,246.432 166.461,246.824 159.799,246.824 C152.354,246.824 147.847,246.628 146.476,246.236 C144.908,245.844 143.341,244.277 141.773,241.337 C132.76,224.683 126.294,207.637 122.376,190.002 C121.984,188.827 121.592,186.476 121.004,183.145 C120.612,179.814 120.22,177.463 120.024,176.287 C120.024,175.503 120.22,174.524 120.416,173.74 C113.559,161.004 109.836,146.505 109.836,131.026 C109.836,129.459 109.836,127.695 110.032,126.128 C87.695,141.802 73,167.862 73,197.252 C73,245.256 111.795,284.051 159.799,284.051 C182.136,284.051 202.317,275.626 217.796,261.911 C203.101,258.384 189.973,251.526 178.805,242.121 C177.433,243.493 175.866,244.472 173.907,245.256 z" fill="#71B7B0"/>
    <path d="M281.279,89.88 C281.279,90.076 281.083,90.076 281.083,90.271 C287.353,102.615 290.88,116.527 290.88,131.222 C290.88,164.727 272.658,193.921 245.619,209.596 C242.68,230.365 232.491,248.587 217.6,261.911 C224.458,263.478 231.512,264.458 238.957,264.458 C290.096,264.458 331.438,223.116 331.438,171.976 C331.243,136.316 310.865,105.163 281.279,89.88 z" fill="#DE4127"/>
    <path d="M169.4,111.237 C186.251,91.839 211.134,79.691 238.761,79.691 C241.896,79.691 244.835,79.887 247.97,80.083 C252.477,74.009 256.787,68.719 260.706,63.82 C244.639,49.321 223.478,40.7 200.162,40.7 C151.766,40.7 112.383,78.515 109.836,126.324 C123.943,116.527 140.99,110.649 159.603,110.649 C162.934,110.649 166.069,110.845 169.4,111.237 z" fill="#FCBA2E"/>
    <path d="M120.416,173.936 C121.004,171.389 122.768,169.037 125.511,166.686 C133.936,160.416 141.381,156.889 147.847,156.302 C150.786,139.255 158.428,123.776 169.4,111.236 C166.265,110.845 162.934,110.649 159.603,110.649 C140.99,110.649 123.943,116.527 109.836,126.323 C109.836,127.891 109.64,129.654 109.64,131.222 C109.64,146.701 113.559,161.2 120.416,173.936 z" fill="#888835"/>
    <path d="M169.4,111.237 C185.859,113 200.75,119.466 213.094,129.067 C222.499,115.155 231.512,102.419 240.133,90.859 C242.876,87.136 245.619,83.61 248.166,80.279 C245.227,79.887 242.092,79.887 238.957,79.887 C211.134,79.691 186.251,91.839 169.4,111.237 z" fill="#BA2025"/>
    <path d="M245.423,209.596 C272.462,193.921 290.684,164.727 290.684,131.222 C290.684,116.527 287.157,102.615 280.887,90.271 C264.233,111.628 248.558,132.593 234.255,153.363 C241.896,166.294 246.207,181.381 246.207,197.448 C246.403,201.563 246.011,205.677 245.423,209.596 z" fill="#DF3F26"/>
    <path d="M245.423,209.596 C272.462,193.921 290.684,164.727 290.684,131.222 C290.684,116.527 287.157,102.615 280.887,90.271 C264.233,111.628 248.558,132.593 234.255,153.363 C241.896,166.294 246.207,181.381 246.207,197.448 C246.403,201.563 246.011,205.677 245.423,209.596 z" fill="#FDBB30"/>
    <path d="M246.403,197.448 C246.403,181.381 242.092,166.294 234.451,153.363 C231.316,157.869 228.377,162.376 225.438,166.686 L207.607,194.117 L194.48,215.278 L190.953,221.352 L189.777,223.507 L185.271,231.541 L180.372,239.77 C179.981,240.75 179.393,241.533 178.609,242.121 C189.581,251.526 202.905,258.58 217.6,261.911 C232.491,248.587 242.68,230.365 245.619,209.596 C246.011,205.677 246.403,201.563 246.403,197.448 z" fill="#722B14"/>
    <path d="M147.847,156.302 C148.631,156.302 149.219,156.106 150.003,156.106 C152.354,156.106 153.921,156.693 154.901,157.673 L157.252,162.18 L166.069,183.537 C167.833,188.435 169.988,190.786 172.143,190.786 C173.515,190.786 176.062,187.847 179.785,181.773 C186.055,171.193 195.264,156.302 207.803,137.1 C209.763,134.357 211.526,131.614 213.29,128.871 C200.946,119.27 186.055,112.804 169.596,111.041 C158.428,123.58 150.786,139.255 147.847,156.302 z" fill="#722B14"/>
</svg>
